<mxfile host="app.diagrams.net" modified="2023-07-27T17:54:59.621Z" agent="Mozilla/5.0 (Windows NT 10.0; Win64; x64) AppleWebKit/537.36 (KHTML, like Gecko) Chrome/114.0.0.0 Safari/537.36 OPR/100.0.0.0" version="21.6.5" etag="yqR-Xx9EUytJeDOJEciL" type="github">
  <diagram name="PÃ¡gina-1" id="oXdv57hGMiIXr91asIke">
    <mxGraphModel>
      <root>
        <mxCell id="0" />
        <mxCell id="1" parent="0" />
      </root>
    </mxGraphModel>
  </diagram>
</mxfile>
